/* XPM */
static char *_d0159a5cb054049c4b8318cc2a7665eJqGsUpVNy1gA6oPJ[] = {
/* columns rows colors chars-per-pixel */
"64 64 48 1 ",
"  c None",
". c black",
"X c #010000",
"o c #000100",
"O c #010100",
"+ c #000001",
"@ c #010001",
"# c #000101",
"$ c #010101",
"% c #9C5A3C",
"& c #9D5A3C",
"* c #9C5B3C",
"= c #9D5B3C",
"- c #9C5A3D",
"; c #9D5A3D",
": c #9C5B3D",
"> c #9D5B3D",
", c #2E3698",
"< c #2F3698",
"1 c #2E3798",
"2 c #2F3798",
"3 c #2E3699",
"4 c #2F3699",
"5 c #2E3799",
"6 c #2F3799",
"7 c #A032E8",
"8 c #A132E8",
"9 c #A033E8",
"0 c #A133E8",
"q c #A032E9",
"w c #A132E9",
"e c #A033E9",
"r c #A133E9",
"t c #B462EA",
"y c #B562EA",
"u c #B463EA",
"i c #B462EB",
"p c #B562EB",
"a c #B463EB",
"s c #B563EB",
"d c #FEFEFE",
"f c #FFFEFE",
"g c #FEFFFE",
"h c #FFFFFE",
"j c #FEFEFF",
"k c #FFFEFF",
"l c #FEFFFF",
"z c white",
/* pixels */
"                                                                ",
"                                                                ",
"                                                                ",
"                                    @@@@@@                      ",
"                         @@@@@@@@@@@lllll@@@                    ",
"                        @llllllllllllllllll@@@                  ",
"                     @@@@llllllllllllllllllll@@                 ",
"                   @@@llllllllllllllllllllllll@@                ",
"                  @@lllllll@@@@@@@@@@@@llllllll@                ",
"                 @llllll@@@@99299999999@@@lllll@@               ",
"                @@llll@@99uuu9299uuuuu9999@lllll@               ",
"               @lllll@@99uul99299999luu999@lllll@               ",
"              @lllll@@299ul99922999999lu99@@lllll@              ",
"              @lllll@222999999229999999u922@@llll@              ",
"             @llll@@992299999922999999uu9229@@llll@             ",
"             @llll@9u92299999922999999u992299@llll@             ",
"            @@lll@@9u9229999992299999lu992299@@lll@             ",
"            @llll@9ul9229999992299999uu9929999@lll@             ",
"            @llll@9u99229999992299999999229999@lll@@            ",
"            @lll@99u99922999992299999999229999@llll@            ",
"           @lll@@9ul99922999992299999999229999@llll@            ",
"           @lll@9uu99992229999229999999922999@@llll@            ",
"           @lll@9u999992229999229999999929999@lllll@            ",
"           @lll@9u99999222999922999999992999@@lllll@            ",
"           @lll@9999999222999922999999922999@llllll@            ",
"          @llll@9999999222999992999999922999@lllll@             ",
"          @llll@9999999222999992299999922999@lllll@             ",
"          @llll@@999999922999992299999922999@lllll@             ",
"          @lllll@999999922999992299999929999@lllll@             ",
"          @lllll@999999922999999299999229999@lllll@             ",
"          @lllll@999999922999999229999299999@@llll@             ",
"          @llll@99999999229999992299992999999@llll@             ",
"          @llll@99999999229999992299992999999@llll@             ",
"          @llll@99999999229999992299922999999@llll@             ",
"          @lll@@99999999229999992299922999999@llll@             ",
"          @lll@999999999229999992299922999999@llll@             ",
"          @lll@9lll&9999229999992299992999999@llll@             ",
"          @lll@&&&l&9999229999992299992299999@llll@             ",
"          @lll@&&&&&&999229999999299992299999@llll@             ",
"          @lll@&&&&&&999229999999299992299999@llll@             ",
"          @lll@&&&&l&9992299999992999922999999@lll@             ",
"          @lll@9&&ll99992299999999299922999999@lll@             ",
"          @lll@99&l999992299999992299922999999@lll@             ",
"          @lll@9999999992299999992299922999999@lll@             ",
"          @lll@9999999922299999992299922999999@lll@@            ",
"          @lll@9999999922299999992299992999999@llll@            ",
"          @lll@9999999922299999992999992299999@llll@            ",
"          @lll@9999999922299999992999992299999@llll@@           ",
"          @ll@@9999999922299999992999992299999@lllll@           ",
"         @lll@999999999222999999929999922999999@llll@@          ",
"         @lll@999999999222999999922999922999999@lllll@          ",
"         @lll@999999999222999999922999922999999@lllll@          ",
"        @lll@@9999999992229999992299999922999999@llll@          ",
"        @lll@99999999922299999992999999922999999@@llll@         ",
"        @ll@@999999999222999999929999999929999999@@lll@         ",
"       @lll@99999999992299999999299999999229999999@lll@@        ",
"       @lll@9999999999229999u9922999999992299999999@@ll@        ",
"       @lll@9999999999299999u99229999999922999999999@ll@@       ",
"      @llll@99u9999999299999u9922999u999922999999999@lll@       ",
"      @lll@999ul999999299l9u99922999ul999229uul99999@@ll@@      ",
"      @lll@999uu9999992999ul99229999ull992299uu999999@lll@@     ",
"     @lll@99999luu9999299u99992999999uuu92299luuuuuu9@llll@@@   ",
"     @ll@@9999999999992999999929999999999229999999999@@lllll@@@@",
"     @ll@999999999999229999999299999999999229999999999@@lllllll@"
};
