/* XPM */
static char *bfd9318dde8a4dee869900fe13bbce78jEUVfHG0XIsIBiGI[] = {
/* columns rows colors chars-per-pixel */
"64 64 30 1 ",
"  c None",
". c black",
"X c #010000",
"o c #000100",
"O c #010100",
"+ c #000001",
"@ c #010001",
"# c #000101",
"$ c #010101",
"% c #EC1C24",
"& c #ED1C24",
"* c #EC1D24",
"= c #ED1D24",
"- c #ED1C25",
"; c #2E3698",
": c #2F3698",
"> c #2E3798",
", c #2F3798",
"< c #2E3699",
"1 c #2F3699",
"2 c #2E3799",
"3 c #2F3799",
"4 c #FEFEFE",
"5 c #FFFEFE",
"6 c #FEFFFE",
"7 c #FFFFFE",
"8 c #FEFEFF",
"9 c #FFFEFF",
"0 c #FEFFFF",
"q c white",
/* pixels */
"                                                                ",
"                                                                ",
"                                                                ",
"                                                                ",
"                                                                ",
"                                                                ",
"                                                                ",
"                                                                ",
"                                                                ",
"                                                                ",
"                                                                ",
"                                                                ",
"                                                                ",
"                                                                ",
"                                                                ",
"                                                                ",
"                                                                ",
"                                                                ",
"                                                                ",
"                                                                ",
"                                                                ",
"                                 ooo     oo                     ",
"                                oo%o     o%o                    ",
"                               o%%oo     o%o                    ",
"                              oo%%o      o%o                    ",
"                              o%%o       oo    oo               ",
"                              o%o       o%o   ooo               ",
"                           111o%o      oo%o   o%o               ",
"                         11111ooo1111  o%%o   o%o               ",
"                      oo1111111oo111111 o%oo  o%o               ",
"                    oo%o1111111111111111o%%o  o%oo              ",
"                    o%%%o111111111111111o%%o  o%%o              ",
"                    ooo%o111111111111111oo%o  o%oo              ",
"                      oooo111111111111111ooo o%%o               ",
"                       ooo1111111111111111  oo%%o               ",
"                        1111111111111111111 o%%oo               ",
"                     oo     111111111111111o%%%o                ",
"                     ooo    111111111111111o%%oo                ",
"                    oo%oooooo1111111111111o%%oo                 ",
"                    oooo%%%oo1111111111111oooo                  ",
"                    7777ooooo11111111111111117777               ",
"                  77777777711111111111111111177777              ",
"                77777777771111111111111111 77777777             ",
"                77777777111111111111111111 77777777             ",
"                77777777111111111111111111111777777             ",
"               777777777111111111111111111111117777             ",
"               777777777111111111111111111111117777             ",
"               7777777777777 1111111111111111117777             ",
"                77777777777777777777111111777777777             ",
"                77777777777777777777777777777777777             ",
"                  777777777777777777777777777777777             ",
"                   7777777777777777777777777777777              ",
"                      777777777777777777777777777               ",
"                                77777                           ",
"                                                                ",
"                                                                ",
"                                                                ",
"                                                                ",
"                                                                ",
"                                                                ",
"                                                                ",
"                                                                ",
"                                                                ",
"                                                                "
};
