/* XPM */
static char *ca787c2c5df842deeff98dc46e048711cAyojZT3jktJStaS[] = {
/* columns rows colors chars-per-pixel */
"64 64 25 1 ",
"  c None",
". c black",
"X c #010000",
"o c #000100",
"O c #010100",
"+ c #000001",
"@ c #010001",
"# c #000101",
"$ c #010101",
"% c #00B6EE",
"& c #01B6EE",
"* c #00B7EE",
"= c #01B7EE",
"- c #00B6EF",
"; c #01B6EF",
": c #00B7EF",
"> c #01B7EF",
", c #FEFEFE",
"< c #FFFEFE",
"1 c #FEFFFE",
"2 c #FFFFFE",
"3 c #FEFEFF",
"4 c #FFFEFF",
"5 c #FEFFFF",
"6 c white",
/* pixels */
"                                                                ",
"                                                                ",
"                              @@@@@@@@@                         ",
"                             @@%%%%%%%@@                        ",
"                            @@%%%%%%%%%@                        ",
"                           @@%%%%%%%%%%@@                       ",
"                          @@%%%%%%%%%%%%@@                      ",
"                        @@@%%%%%%%%%%%%%%@@                     ",
"                       @@%%%%%%%%%%%%%%%%%@                     ",
"                      @%%%%%%%%%%%%%%%%%%%@                     ",
"                     @@%%%%%%%%%%%%%%%%%%%@@                    ",
"                    @@%%%%%%%%%%%%%%%%%%%%%@                    ",
"                    @%%%%%%%%%%%%%%%%%%%%%%@                    ",
"                   @@%%%%%%%%%%%%%%%%%%%%%%@@@                  ",
"                  @@%%%%%%%%%%%%%%%%%%%%%%%%%@                  ",
"                  @%%%%%%%%%%%%%%%%%%%%%%%%%%@                  ",
"                  @%%%%%%%%%%%%%@@@@@%%%%%%%%@@                 ",
"                 @@%%%%%%%%%%%%@33333@%%%%%%%%@                 ",
"                 @%%%%%%%%%%%%@333333@%%%%%%%%@                 ",
"                @%%%%%%%%%%%%%@33@@@3@%%%%%%%%@                 ",
"                @%%%%%%%%%%%%%@33@@@3@%%%%%%%%@                 ",
"                @%%%%%%%%%%%%%@33@@3@%%%%%%%%%@                 ",
"                @%%%%%%%%%%%%%%@333@%%%%%%%%%%@                 ",
"                @%%%%%%%%%%%%%%%@@@%%%%%%%%%%%@                 ",
"                @%%%%%%%%%%%%%%%%%%%%%%%%%%%%%@                 ",
"               @%%%%%%%%%%%%%%%%%%%%%%%%%%%%%%@@@@@@@           ",
"               @%%%%%%%%%%%%%%%%%%%%%%%%%%%%%%%%%%%%%@@@        ",
"               @%%%%%%%%%%%%%%%%%%%%%%%%%%%%%%%%%%%%%%%@        ",
"               @%%%%%%%%%%%%%%%%%%%%%%%%%%%%%%%%%%%%%%%@        ",
"               @%%%%%%%%%%%%%%%%%%%%%%%%%%%%%%%@@@@@@@@@        ",
"               @%%%%%%%%%%%%%%%%%%%%%%%%%%%%%%%@@@@@@@          ",
"               @%%%%%%%%%%%%%%%%%%%%%%%%%%%%%%%%%%%%%@@@        ",
"              @@%%%%%%%%%%%%%%%%%%%%%%%%%%%%%%%%%%%%%%%@        ",
"              @%%%%%%%%%%%%%%%%%%%%%%%%%%%%%%%%%%%%%%%@@        ",
"              @%%%%%%%%%%%%%%@@@@@%%%%%%%%%%%%%%%%%@@@@         ",
"              @%%%%%%%%%%%%%@33333@%%%%%%@@@@@@@@@@@%           ",
"              @%%%%%%%%%%%%@3333333@%%%%%%%%@                   ",
"              @%%%%%%%%%%%%@33333333@%%%%%%%@                   ",
"              @%%%%%%%%%%%@3333333333@%%%%%%@                   ",
"              @%%%%%%%%%%%@3333333333@%%%%%%@                   ",
"              @%%%%%%%%%%@333333333333@%%%%%@                   ",
"              @%%%%%%%%%%@333333333333@%%%%%@                   ",
"              @%%%%%%%%%%@3333333333333@%%%%@                   ",
"              @%%%%%%%%%%@3333333333333@%%%%%@                  ",
"              @%%%%%%%%%%@33333333333333@%%%%%@@                ",
"              @%%%%%%%%%%@33333333333333@%%%%%%@@               ",
"              @%%%%%%%%%%@33333333333333@%%%%%%%%@              ",
"              @%%%%%%%%%%@33333333333333@%%%%%%%%@              ",
"              @%%%%%%%%%%@33333333333333@%%%%%%%%@              ",
"            @@%%%%%%%%%%%@@3333333333333@%%%%%%%%@              ",
"         @@@@%%%%%%%%%%%%%@3333333333333@%%%%%%%%@              ",
"      @@@@%%%%%%%%%%%%%%%%@3333333333333@%%%%%%%%@              ",
"    @@@%%%%%%%%%%%%%%%%%%%@33333333333333@%%%%%%%@@             ",
"    @%%%%%%%%%%%%%%%%%%%%%@33333333333333@%%%%%%%%@@@@@         ",
"    @%%%%%%%%%%%%%%%%%%%%%@33333333333333@%%%%%%%%%%%%@@@@      ",
"    @%%%%%%%%%%%%%%%%%%%%%@33333333333333@%%%%%%%%%%%%%%% @@    ",
"    @%%%%%%%%%%%%%%%%%%%%%@33333333333333@%%%%%%%%%%%%%%%% @    ",
"    @%%%%%%%%%%%%%%%%%%%@%@33333333333333@%%%%%%%%%%%%%%%%%@    ",
"    @%%%%%%%%%%%%%%%%%%@@@@@@@@@@@@@@@@@@@@@@@%%%%%%%%%%%%%@@   ",
"    @%%%%%%%%%%%%%%%%%@%%%%                  @%%%%%%%%%%%%%%@   ",
"    @@%%%%%%%%%%%%%%%%@%                     @%%%%%%%%%%%%%%@   ",
"     @%%%%%%%%%%%%%%@@@                      @@%%%%%%%%%%%%%@   ",
"     @@@@@@@@@@@@@@@@                         @@@@%%%%%@@@@@    ",
"                                                 @@@@@@@%%%     "
};
