/* XPM */
static char *_c91e9c436794a64bc14a689b34f70bdclDzohkJSTh1Qv2N[] = {
/* columns rows colors chars-per-pixel */
"64 64 3 1 ",
"  c #00B7EF",
". c #A3D4E3",
"X c #FFFFFE",
/* pixels */
" XXXXXXXXXXXX           XXXXXXXX                                ",
"X............XXXX   XXXXX......XXXXX                XXXXXXXXXXX ",
"X...............XX  X..............XXXX   XXXXXXXXXXX.........X ",
"X................X XX.................XX  X...................X ",
"X.................XX...................XXXX...................X ",
"X.................X......................X....................XX",
"X.................XX....................XX.....................X",
"X................XXXXXX...............XXXXXXXXX................X",
".XXXXXXXXXXXXXXXXX....XXXXXXXXXXXXXXXXX       XX..........XXXXXX",
"......XXX      XX.........X     XXXXX           XXXXXXXXXXX     ",
"........XX    XX..........XX   XX...XXXXXXXXXXXXXXX         XXXX",
".........XX  XX............XX  X..................XX XXXXXXXX...",
"..........X XX..............X XX...................XXX..........",
"..........X X...............X X....................XX...........",
"..........X X...............X X....................XX...........",
"...........XX..............XX X....................XX...........",
"..........X X..............X  XX..................XXXX..........",
"........XXX XXXXXXXXXXXXXXXX   XX............XXXXXX  XX.........",
"XXXXXXXX                    XXXXXXXXXXXXXXXXXXXXXXXXXXXXXXXXXXXX",
" XXXXXXXXXXXXXXX      XXXXXX......XX   XXXXXXX............XXX   ",
"XX.............XX   XXX............XX XX....................XXX ",
".................X  X...............XXX.......................X ",
".................XXX................XX........................X ",
"..................XX................XX........................X ",
"..................XX................XX........................X ",
".................XXXX..............XXXX......................XX ",
"XX...............X  X..............X  XXX....................X  ",
" XXX............XX  X.............X     XX..................XX  ",
"   XXX.........XX   XX...........XX       XXXXXXXXXXXXXXXXXXX   ",
"     XXXXXXXXXXX      XXXXXXXXXXXX               XXX            ",
"    XX   XXXXXXXXXXXXX           XXXXX        XXX...XXXXX       ",
"XXXXXXXXX............XXXX   XXXXXX....XX    XX...........X      ",
"......XX.................XXXX..........XXX XX.............X     ",
"......XX.................XX..............XXXXX.............X    ",
"......XXX................XX...............XX X..............X   ",
"......X X...............XXX................XXX...............X  ",
"....XXX X...............X X.................XX...............X  ",
"....X   X...............X X.................XX...............XX ",
"....XX  X...........XXXXX XX...............XXX................XX",
"XX..XX  XXXXXXXXXXXX XXX   XX..............X X.................X",
" XXXXXXXXXXX      XXXX.XX    XXXXX.......XX  X.................X",
"  XXX......XX     X......X        XXXXXXX   XX.................X",
"XX..........X    XX......XX  XXXX XXXXXX   XX..................X",
".............X   X........X X...XXX....XXX X...................X",
".............X   X........X X............X X..................X ",
"..............X  X........X X............X X..................X ",
"..............X X.........X X............X X.................XX ",
"..............XXX.........X X............X X.................XX ",
"...............XX.........X X............X X..................X ",
"...............XX.........XXX.............XX.................XX ",
"..XXXX.........XXX........XX..............XX.................X  ",
"XXX  XX........X X........XX..............XX................X   ",
" XXXX X........X X........XX..............X XXX...........XXX   ",
"XX..X X........X XX.......XXX.............X   XXXX......XXX     ",
"....X X........X  XX......X X.............XX     XXXXXXXX       ",
"....X X........X   X......X X..............XXXX                 ",
"....X X.......XX   X......X XX................XXXXXXXXXXXXXXXX  ",
"....X X.......X    X......X  X................................X ",
"....X XXXXX...X    X......X  X................................XX",
"....XX    XXXXX    XXX....X  XX................................X",
".....XXXXXX  XX      X....X   XX...............................X",
"..........XXX        XX..XX    XXX.............................X",
"............X         XXXX       XXXXXXXXXXX....XXXXXXX.......XX",
".............XX                             XXXX      XXXXXXXXX "
};
