/* XPM */
static char *_4f378fbd6394a30f7c8fca294a82518QEbCRPjHVRmjNdsH[] = {
/* columns rows colors chars-per-pixel */
"64 64 69 1 ",
"  c #4D6DF3",
". c #4C6DF3",
"X c #4D6DF2",
"o c #4D6CF2",
"O c #4C6CF2",
"+ c #4C6DF2",
"@ c #4D6CF3",
"# c #4C6CF3",
"$ c #010100",
"% c #000101",
"& c #010101",
"* c #000100",
"= c black",
"- c #010000",
"; c #000001",
": c #FEFFFF",
"> c #FEFEFF",
", c #FFFEFF",
"< c white",
"1 c #FFFFFE",
"2 c #FFFEFE",
"3 c #010001",
"4 c #FEFEFE",
"5 c #FEFFFE",
"6 c #99D9EA",
"7 c #98D9EA",
"8 c #98D8EA",
"9 c #99D8EA",
"0 c #98D9EB",
"q c #A033E9",
"w c #A032E9",
"e c #2F3798",
"r c #A133E8",
"t c #A133E9",
"y c #A033E8",
"u c #A032E8",
"i c #99D8EB",
"p c #99D9EB",
"a c #98D8EB",
"s c #B563EB",
"d c #B462EA",
"f c #B463EB",
"g c #2E3698",
"h c #B562EB",
"j c #A132E8",
"k c #B463EA",
"l c #B562EA",
"z c #2E3699",
"x c #A132E9",
"c c #2F3698",
"v c #2F3699",
"b c #2F3799",
"n c #2E3798",
"m c #2E3799",
"M c #B462EB",
"N c #00B7EF",
"B c #9C5A3D",
"V c #9D5A3C",
"C c #9D5B3C",
"Z c #9C5B3D",
"A c #9D5A3D",
"S c #9C5B3C",
"D c #9C5A3C",
"F c #9D5B3D",
"G c #709AD1",
"H c #709AD0",
"J c #709BD1",
"K c #709BD0",
"L c #719AD0",
/* pixels */
"  .   .XXX  o  OX + . +@X. X .. o  #o@X @  .X@  X.O     X  @ #@o",
"  X#  O X.o. +X+. X @@.O#XX.   @ XX XoX  @   .X+  X. @. o  X X #",
" . . .X @+  X..  @+..O@ + X .@#@..    X   @@.@ o+O.  ..@X @ #  +",
" X #@o Xo @@. X ..o. @.@X  X.X.#  O@$%&*=* X.  . @ XX  ##@@#  XX",
"  . .+@ X @#X  XX.X+. XX &=-%&$;%=%%::>>>&%; @ @X  O#o .#.@ .XX ",
"@ X  .. X+.X o.X   X@ o.-,,<1:>1<:::,,,2<<:*%3  X.  @o. o. o@ O@",
" .++  @   #O@O@ .@# @*%-;<,:,4><245>:,,,,<,5>=;.@ #  @. . . @@ O",
" X X@+ . .@#  67687&%%1<2<,:2:1<<,,><<,<1<><,:%*@ @XX. .   .X#@@",
"  @@X@+. X # 96660%&,2>:1<,3=3*;-=-3%$%<<:<1::<%@    .  @ X# X@ ",
"#+   o XOX.@66676$::<2:1;;;=qwertyuuyuq$3$<<:<5&-XX X@.  o.@X #+",
" @   X++ @.i6pa6==:<1<-%yysdfygtrhfffftjrw3<,,:<;oX +o @##+ . #+",
"X@. +X . @ 796p-<<<11;-jukl1uyzqqxur<dkuyr*>:5><*XXX@   #@@ o#X+",
" @XX.@..X Xiap&:<::5&3cyyf1qquevwqyjqt,ftj;%<><<1&   .@ .#@     ",
". X    .@+p00p%<1,:<-bzzrwtwjrnzyqyrwqqkrgv33<5,<;. XX @ +Xo +#+",
"XX+@ . @+ p6p3:5<<$-rremjyyryuvcutqtxjfstcvx-3<5,:&  oX@.+ @@#oX",
"+     X .76763<<:1*rfyzeqytqywbcquywxysyuvcqy=<><<=X  +#.X .@ @X",
" @  X X 6pi6;%152&3rdqmbtxtuuucnuuxwr<ljqgzty;&,1<;@@ X+ X@oo  X",
".#X@ +@  + X%5,2:=yl<ybnqrqujtzmwryjufsuueqqwx3:1:* #@.@XX .#  #",
"  .o @..@..o=12<43jMrwmzttqqjjbbyytuyuuxbcqury&<5,&= X@@#@@+  ++",
"..  +@X@+ . ;5>1-yykyrwbzwyjqwccuqwxrwtqcmurjj3,<51=.@oX#   @X. ",
"@X X      .-1>,**xM:uywccwruxtvzyxruyjxycvquwr;5<<,3  @   # @. +",
" X@ #    @ %:,4;uMfqqyugeeuqqyveuxtqwyyrenqyr$=21<,$Xo#o #X    .",
"  +@X+oX. +%<<,=ykuurtyzbbrwyyneruyqyjrtgwyrj&2<1<:3 Xo@.@ o#.  ",
"#. .+  @#+.3<><=usyqyytcnetuqrcgttywtwrygxyq3;211::*    @X @@#@@",
"  @ +o#  ++-<,<;yyyyxywbgnutrtzgyyytqqymnyju&<<<<<,$.X.  . #X. .",
" @X@@+ .# ;:,2<=yryytwqgmmyjqqubqtryxqybbywt%>1>>,-+ . . .@ @ XX",
" .o @@ @  3<:1<;jqwtyqyvgzyurqunnqryqrxgvxqt$11<<2%@.+  +O.  @ o",
"#    .# + &,:12-*urxqjxrczyjtwrmctwqxwjcnqrr=,:2<5$   X..+ @X@@ ",
" X. OX.X.X-,<<:2&qjyuyyqgzjuyxyvbyyxuyybuyqy$421,<=.X   ## . X  ",
" o X@.   X%2,15<-rrqyyrtcmtyyqyjcuyxwxevqrtx&1,225%.  X.+. Xo .o",
" o@    +@@*<>155;wjjqrqjncqywyqqzbtyutbyyujy%*<<41-+Oo.X X X +@X",
"..  @  O +3<1:<=yyyyutwrgeqyjrqqzvyqjrcquwujr=1<>,*##+XOo@   .. ",
"  #@  @#oO-:<:5%quyurqxjzvuyyjruecwyurvyyjytj;52<,*@. X  . #  #o",
"o #X.o X X%<<>1;qytqqjqyvequyutybgqqugctyyrqq-112>=NX @+ ..X o  ",
". X..#@@ #$<1<=-rjxqrxyreztruxutmzrrqgmyyyryt;52<>-X..@@+ o#X+ +",
"XO X  @o@@$<2<*qttyyuuwrevrwjruqncqurczyqyjyq$:,52%o .#  . .    ",
".+. X..  .*><<3t:1,Bqwtrvvruwwyqecwxxyvtruxxy;51<,3@X@. X  X@ X ",
"@@@  .X+.X31<<%VCZ,Auxxqcctuuutuvvywrwceyyyqy-:1<,*  .oX.XO ++XX",
" @  @ .@ .*:<,$AVAABSrqymnjwquyuwmtywrgvqywjw&,:<:=X.     @ oX. ",
" X .X@@+  =<1<=DVVDCAjtyggwuyrjwrvtyyxebqyjur%<<,2*.X   o  . @  ",
" X.X  o @.*>443VVVF:Bywrvzuyqjutumtuwwczyujwqu-<>,- X#XXo o#X@ X",
"    oX+. @;52<-wVF<<yrtuzcqxrqtwtycrwyverqytyr3<11=  O@#XX.@  @ ",
"@+..X X Xo=1<<-jrS,qyqwubctqytrtjmeuqyvzytyyqy=1,,- Xo.o. .oO.. ",
".X X X.o. -<:<%wtyxytrqrmcyqqqwrqnzxuyvzwyyyxt=<:<=o. X  @   .  ",
"o @  # #OX3:<,$uqrwurjqbvgtrqwwjwebuyucctyyqwq$<,:-=.p676@ o.@  ",
"#@#  @.  @&12:$ujyryrjumveywrywuqmzttwynuutrwx;:,>1$6a6p6XX X . ",
"XXo@#o@oGH%<>13yqwxyqjqbbbyquutwqcyuwqyzcqqjut%1<1,-99996@ o  O.",
" @ @O  GJK&<21*yyujjwujvmbqyrqrqymyuqjjzbwryuj;<<1<-*96p# X@o   ",
" X  @  GJL;,<&*ttryrytxgnzrryqqrybuqtrygvyjwyy;,:<1:;p. X  .@  @",
".@  @@   &,5<3yquurytuqzznquuyqyucrutxynvttrryr*,21<==@  ...   X",
"XX.@@oXoG%<,<&xwujqyywjgvbxyuyyyuvvyyuwbcyjwyxy=1<2<,%#  @@O@# .",
"X@ O.@  G&:<1$uytqtryuxcecwtyyxrygmqyryvzqyqyyw*4:1,<-#+ @X  XXX",
"@  #@+o.;2:2&=rjwyjwyyyzbcrjqwqjbgtrjyxyvmywquqq*:2,<3  X   XX. ",
"o@ X#  X;,,<-rqwrrrqyynmgyyrrrwwetyuryqjceyqrujy=*:<,<* +@@  @. ",
"+#.#X#@ $2>%=qurywxxjybzcryrqqttmququrjxycytqtqyu%3241%o # # .Xo",
"o.o X o=>5<;xjqjyywqyqngryqtwyruztyqtwuywcvwuyryjj=<:,*-X. .#@ X",
"+.  .@#&:,1;jwtqwqqrqwcejwjqdtqcctyrjxjqrczjtryqtyq-;<5%oX  .X# ",
"@X o .X-2:<%jqyqyyuxuyzyyuuyMuuzgqyyyruqqvvtwqutwyuy-<<=-@ ..#  ",
"   o.+=:,2<=jxMjjyuqqrmqxwywhyrbvuxjfyrjqvvyqyurwyqq-:<,%X+ XX .",
"XX  @ $,14-wjys<ruqwtjerj<wftquvzqyuf<rurbmrds<wyxtr==<:=&..  #X",
" @XO .&:,<*yxwdMyyuyryzqqyf<jjbbuujuf<:juznyyMdryyyty-:,1*% +.X ",
". o@.3:1:$wjuuw<fsyrrqbquMyywynywytwysMsrvbyq<ffMsfkj;<2,2$**@+.",
". @. *,:*-qtruqjturryjzyurwtuymyttqquyrxyzvqqyuqqujyu-3<1,51=*=&",
"  X@+-,,=ttyuuyqwxjuqmgqyuqqyxbytjxwuyyywrzztuyyjyryyj;3<<,::<<3"
};
