/* XPM */
static char *_51a0ddfdbc54ebef6fe1c6abd0656a6lAynmq8cbKsEeNSE[] = {
/* columns rows colors chars-per-pixel */
"64 64 5 1 ",
"  c #2E3699",
". c #4D6DF3",
"X c #00B7EF",
"o c #709AD0",
"O c #99D8EB",
/* pixels */
"................................................................",
"................................................................",
"................................................................",
"................................................................",
"................................................................",
"................................................................",
"................................................................",
"..............OOOOOOO...........................................",
".............OOOOOOOOO.....OO...................................",
"............OOOOOOOOOOOOOOOO....................................",
"...........OOOOOOOOOOOOOO..O....................................",
"...........OOOOOOOOOOOOOO.......................................",
"...........OOOOOOOOOOOOOO.......................................",
"..........OOOOOOOOOOOOOO.................o......................",
"..........OOOOOOOOOOOOO..................ooo....................",
".........OOOOOOOOOOOOO.................ooooooooo................",
"........OOOOOOOOOOO...................ooooooooooo...............",
".............OOOOO...................ooooooooooo................",
"..............OO..........................ooooo.................",
"................................................................",
"................................................................",
"................................................................",
"................................................................",
"................................................................",
"................................................................",
"................................................................",
"..................        ......................................",
"...................       ......................................",
"...................       ......................................",
"......................    ......................................",
".......................   ......................................",
"........................  ..................X...................",
"........................  ..................XXXXXXX.............",
"........................  ..................XXXXXXXX............",
".............................................XXXX.X.............",
"................................................................",
"................................................................",
"................................................................",
"................................................................",
"................................................................",
"................................................................",
"................................................................",
"................................................................",
"................................................................",
".....................................................OOOO.......",
"...................................................OOOOOO.......",
"........ooooo.....................................OOOOOOO.......",
".......ooooooo.................................OOOOOOOOO........",
".......oooooooo..........................OOOOOOOOOOOOO..........",
".........oooooo.........................OOOOOOOOOOOO............",
"........ooooooo.........................OOOOOOOOOO..............",
"........o..oooo.........................OOO..OOOOOO.............",
"..........ooooo................................OOOO.............",
"..........ooooo................................OOOO.............",
".........ooooo..................................OO..............",
"........oooooo..................................................",
".........oooo...................................................",
"................................................................",
"................................................................",
"................................................................",
"................................................................",
"................................................................",
"................................................................",
"................................................................"
};
