/* XPM */
static char *_454f38a1e584c94d127b7fefd3a4fa5qQmmOL2ZeYyn70AK[] = {
/* columns rows colors chars-per-pixel */
"64 64 57 1 ",
"  c #4D6DF3",
". c #4C6DF3",
"X c #4D6DF2",
"o c #4D6CF2",
"O c #4C6CF2",
"+ c #4C6DF2",
"@ c #4D6CF3",
"# c #4C6CF3",
"$ c #99D9EA",
"% c #98D9EA",
"& c #98D8EA",
"* c #99D8EA",
"= c #98D9EB",
"- c #99D9EB",
"; c #99D8EB",
": c #98D8EB",
"> c #709AD0",
", c #709AD1",
"< c #719BD1",
"1 c #709BD1",
"2 c #719AD1",
"3 c #719AD0",
"4 c #2F3698",
"5 c #2F3699",
"6 c #2E3699",
"7 c #2F3799",
"8 c #000001",
"9 c black",
"0 c #000100",
"q c #010000",
"w c #EC1C24",
"e c #ED1C24",
"r c #00B7EF",
"t c #ED1D24",
"y c #00B7EE",
"u c #01B7EF",
"i c #ED1C25",
"p c #00B6EF",
"a c #00B6EE",
"s c #010001",
"d c #010100",
"f c #2E3799",
"g c #2E3698",
"h c #000101",
"j c #2F3798",
"k c #2E3798",
"l c #010101",
"z c #709BD0",
"x c #EC1D24",
"c c #FFFEFE",
"v c white",
"b c #FFFEFF",
"n c #FEFFFF",
"m c #FEFEFF",
"M c #FEFFFE",
"N c #FEFEFE",
"B c #FFFFFE",
/* pixels */
"  .   .XXX  o  OX + . +@X. X .. o  #o@X @  .X@  X.O     X  @ #@o",
"  X#  O X.o. +X+. X @@.O#XX.   @ XX XoX  @   .X+  X. @. o  X X #",
" . . .X @+  X..  @+..O@ + X .@#@..    X   @@.@ o+O.  ..@X @ #  +",
" X #@o Xo @@. X ..o. @.@X  X.X.#  O@  X @X X.  . @ XX  ##@@#  XX",
"  . .+@ X @#X  XX.X+. XX  .    O  @X.# X. o  @ @X  O#o .#.@ .XX ",
"@ X  .. X+.X o.X   X@ o.X.@ .@+  @@ @.  @ X@+@  X.  @o. o. o@ O@",
" .++  @   #O@O@ .@# @XXX  @.#@    .#X  .     O .@ #  @. . . @@ O",
" X X@+ . .@#  $%$&%*%X@+oX@ OX#   #.@ X@ @  X.  @ @XX. .   .X#@@",
"  @@X@+. X # *$$$=$$$$@.@# *$ # @.+ @+#+ .#X  + @    .  @ X# X@ ",
"#+   o XOX.@$$$%$$-%*-$$%$$%@@...o.o   .XO .X X+ XX X@.  o.@X #+",
" @   X++ @.;$-:$;;&;$*$-$@.- o #  #..@.@X    o.# oX +o @##+ . #+",
"X@. +X . @ %*$-$-$$$;---$ .++ +#O+ o@X   .o  #Xo#XXX@   #@@ o#X+",
" @XX.@..X X;:-**$-;=%*%%$+O@O X @#@. o  o..X   +     .@ .#@     ",
". X    .@+-==-$%$$-%=-%$.@@@#O .+ . .oXX >@XX XX. . XX @ +Xo +#+",
"XX+@ . @+ -$-**$$-$$$%%#    @o   oO@    .,,< O  @+.  oX@.+ @@#oX",
"+     X .%$%$%$&$%$=$%@..X#   X..O@.## ,,>,,,,,1  .X  +#.X .@ @X",
" @  X X $-;$--%$$$*  O. #+   @ # O#XX 2,,,,,2>>,2oO@@ X+ X@oo  X",
".#X@ +@  + Xo:&*$;Xo @@@ . X+o.o  #. >,,,213,,21Xo  #@.@XX .#  #",
"  .o @..@..o @%$O@+X @@o#.O    XX#. @X   X>1,3,      X@@#@@+  ++",
"..  +@X@+ . X  @.X.@@. X #   @    @+. @ + Xo . X  @@.@oX#   @X. ",
"@X X      .oX@.@ @ o+  @@ +@#    @# oX +o@ @ XXX +    @   # @. +",
" X@ #    @  @   @  @ . @ @..oX##@@@#  @ +@  X @..+ .Xo#o #X    .",
"  +@X+oX. ++.@#  @ X   X  @ X  X+o@  @  +X.#. @  X#  Xo@.@ o#.  ",
"#. .+  @#+.@ X  @ X # @.  Oo@    oo .  OOo +@  @ X@     @X @@#@@",
"  @ +o#  ++.X.@@ .@ #XXX  @o@    X. @ .+o@@O o   o @.X.  . #X. .",
" @X@@+ .# #..  X @ @  + .o +. X@+Xo.  @ @  .o@X @. + . . .@ @ XX",
" .o @@ @  .. @ +  45555567    .. X@ . . @@.#.@@.. .@.+  +O.  @ o",
"#    .# +  @O #o@o@7555455 @.X  .#.  + @  .. .@ @o    X..+ @X@@ ",
" X. OX.X.X    @....6555545+XX@ .XXXo.o.  @ oXo. .. .X   ## . X  ",
" o X@.   X @ #  .@+ X@5655o@@@  Xo.# +  .@ . # @X @.  X.+. Xo .o",
" o@    +@@..X..   + .@#555@#@ +890.X o@9q .  +@X@ ++Oo.X X X +@X",
"..  @  O +o. + X  #X  ..77@   99w9 @..X9eq .rX. .oX##+XOo@   .. ",
"  #@  @#oO.  X   oO  X@ 64.X 0et0q   #@9w0 +rryurrr@. X  . #  #o",
"o #X.o X X   X @  X  .@ 67XO98ei9 OO#  qe0#@rrrrpaurX @+ ..X o  ",
". X..#@@ #X X @ ..  #  @ X. swt9 .    @99  .X99rr.rX..@@+ o#X+ +",
"XO X  @o@@ .@ . X#+X+O.@   X0w8XX .@@@0e8 XOd98 X@@o .#  . .    ",
".+. X..  . .   @@ @..XXOX55f9e9  #X  qse9 @ se9#+.X@X@. X  X@ X ",
"@@@  .X+.X. Xo O@.XX.  g55459907g46 X0eeq # qe8@#X   .oX.XO ++XX",
" @  @ .@ . #X @.    0064747g5h045f575 0e99.#9t9O+X X.     @ oX. ",
" X .X@@+     X@XX 90iq65757656g66565fg9ee8@ 9e99##o.X   o  . @  ",
" X.X  o @.+@@@ .O#seee9674g454656566749eeh  9ee9 oX X#XXo o#X@ X",
"    oX+. @ X#XX+o.s90eh465g5gj555457f409e9 .9e0s o   O@#XX.@  @ ",
"@+..X X Xo   @X @X  h8q95555f745g55k6j7l9l 9ee0.    Xo.o. .oO.. ",
".X X X.o. @@. @XO    qq0g5f5k4g644k44k56. qsee9XX.Xo. X  @   .  ",
"o @  # #OXo.@+@  o X..5555jk4465f67656455 9ee00  @@ .-$%$@ o.@  ",
"#@#  @.  @.@..  @Xo09+...@ggf4655j7j55457qete9oOO. $$:$-$XX X . ",
"XXo@#o@o,>,21@.+@+ 9qq..@ 5546455765675759ee99oXX -$****$@ o  O.",
" @ @O  ,1z1,,>XX @h9w80s99q654f755g555679ee89 X%$;-$-*$-# X@o   ",
" X  @  ,131,1,1 @.9h9detxs94765555j4ggk5q99h&&$$$-=$$-. X  .@  @",
".@  @@   212<2,X@ cvbvs999965567655754ggj64vnmv*$$&* .@  ...   X",
"XX.@@oXo,,,2,>, nbmMvcNbB7657j77677j55g5546vvvvb-$ . ##  @@O@# .",
"X@ O.@  ,  ,,,bbnbBvvbMb5456kg6f7j555565$MBvbnvbb-- .X#+ @X  XXX",
"@  #@+o.X >3,,BBMvbnBv5j55jf55k464555666 BBvbvbbb%$ #@  X   XX. ",
"o@ X#  XX ,,,<nvvbBmnv657g557k6556ff6757576vvvvmv*%.  + +@@  @. ",
"+#.#X#@ X2,,>BcnbvMbnn67fk77555676j7755j5gk5gbBnn$ .O@.o # # .Xo",
"o.o X o ,,31,nMBBvBbcB57f44fjg67g4f654f6j5575cvNv X  @+@X. .#@ X",
"+.  .@#XX1>1,Bvvbvmvnmnvvb.k4f66kk4464555557fNvvB+ .@ #+oX  .X# ",
"@X o .X.. #.# bBbMbmbcbMvmbvcvbnBB6j476jMBnBvbBvvX X  @.o@ ..#  ",
"   o.+X  #@.. vvMvnvbvvvbvvnNBncbnMbmvBvbbvvnBvbvX   X@@ X+ XX .",
"XX  @ .X.  #O.XXcvcvnMBvmBmBMBbBvvnBcnvbbbbbvcBMnXXX ++.  ..  #X",
" @XO ..o  @XX+ #.vbvbBNvcvvcvbBvNMmbBnBBvbvvvvBv o@  oXX X  +.X ",
". o@.X@@Xo@ .+ . @ +mbvvvnbMbcmmmbnnvnncvvMvvnnX oXo. X  oX. @+.",
". @. . ##.@.@.@ # +.# .X.@@Xo bvbmB.X. +.X X o+.X.@@+ .  X #  @@",
"  X@+.o.    +X#+.@X.. X#   .    @@@@  + @  X.@@    o    @.    .@"
};
