/* XPM */
static char *c6acf4bb0a594001cc55413f909d168e2QpLfl3ZbR3Q8XYh[] = {
/* columns rows colors chars-per-pixel */
"64 64 46 1 ",
"  c #4D6DF3",
". c #4C6DF3",
"X c #4D6DF2",
"o c #4D6CF2",
"O c #4C6CF2",
"+ c #4C6DF2",
"@ c #4D6CF3",
"# c #4C6CF3",
"$ c #010001",
"% c #010101",
"& c #000001",
"* c #010000",
"= c #000100",
"- c black",
"; c #010100",
": c #00B6EE",
"> c #01B7EF",
", c #00B6EF",
"< c #00B7EE",
"1 c #00B7EF",
"2 c #01B6EE",
"3 c #000101",
"4 c #01B6EF",
"5 c #01B7EE",
"6 c #99D9EA",
"7 c #98D9EA",
"8 c #98D8EA",
"9 c #99D8EA",
"0 c #98D9EB",
"q c #99D9EB",
"w c #99D8EB",
"e c #98D8EB",
"r c #709AD1",
"t c #709BD1",
"y c #719AD1",
"u c #FFFEFF",
"i c white",
"p c #FEFEFF",
"a c #FEFEFE",
"s c #FFFEFE",
"d c #FEFFFF",
"f c #FEFFFE",
"g c #FFFFFE",
"h c #709AD0",
"j c #709BD0",
"k c #719AD0",
/* pixels */
"  .   .XXX  o  OX + . +@X. X .. o  #o@X @  .X@  X.O     X  @ #@o",
"  X#  O X.o. +X+. X @@.O#XX.   @ XX XoX  @   .X+  X. @. o  X X #",
" . . .X @+  X..  @+..O@ + X .@$%&&*=-$$   @@.@ o+O.  ..@X @ #  +",
" X #@o Xo @@. X ..o. @.@X  X.-;:>,<12:==@X X.  . @ XX  ##@@#  XX",
"  . .+@ X @#X  XX.X+. XX  . 3*:2:>21>2>;. o  @ @X  O#o .#.@ .XX ",
"@ X  .. X+.X o.X   X@ o.X.@=*4::54<,>,2;3 X@+@  X.  @o. o. o@ O@",
" .++  @   #O@O@ .@# @XXX  &;:4>:2<1>1,113&   O .@ #  @. . . @@ O",
" X X@+ . .@#  6768797X@+$;&214:5:4,554:143% X.  @ @XX. .   .X#@@",
"  @@X@+. X # 966606666@=;<,44<>1<152>4:><5*X  + @    .  @ X# X@ ",
"#+   o XOX.@666766q79q%<,>515211<4,445<><<*.X X+ XX X@.  o.@X #+",
" @   X++ @.w6qe6ww8w6$311254:24125<5:12,>1&& o.# oX +o @##+ . #+",
"X@. +X . @ 796q6q666=-<4>1>:<,,<,22>5>4>4<<- #Xo#XXX@   #@@ o#X+",
" @XX.@..X Xweq996qw0$>111><,>5:::<>1<1<,<25-   +     .@ .#@     ",
". X    .@+q00q6766q&$><:4:><:2111<2><4<>,2>-&=XX. . XX @ +Xo +#+",
"XX+@ . @+ q6q9966q$*,:44>24>11<,2214>51<>1,5<=  @+.  oX@.+ @@#oX",
"+     X .767676867$<22<>4>>5:,:<4511<1<<<<,,4-rt  .X  +#.X .@ @X",
" @  X X 6qw6qq7666=4:,><5>,52,>2-----155,<,<<-=ryoO@@ X+ X@oo  X",
".#X@ +@  + Xoe896&->1:,,>2<:44,-uipii-><22:<,5%tXo  #@.@XX .#  #",
"  .o @..@..o @76O*:4>:11::>:1>-piasid35>2,<>1,-      X@@#@@+  ++",
"..  +@X@+ . X  @*5515:<<21:544*fd;;$g&<1<,22,1=X  @@.@oX#   @X. ",
"@X X      .oX@.@*4<>41<:>,<,<,-si3*%p-15152>,1&X +    @   # @. +",
" X@ #    @  @   3<,:1>5,451,<,-ua;=a-<5:::,<41%..+ .Xo#o #X    .",
"  +@X+oX. ++.@# 3511444<12,11,:-aug-11,<151:2>*  X#  Xo@.@ o#.  ",
"#. .+  @#+.@ X  3:<<1,1>51<<,1>1=-*>11,:::45>5-@ X@     @X @@#@@",
"  @ +o#  ++.X.@@$<15,>55<5,25212<<,:1,14>1,>2,$  o @.X.  . #X. .",
" @X@@+ .# #..  =14::>>:>5,>54>4,>5,>255415,221-%;*;;3. . .@ @ XX",
" .o @@ @  .. @ 3>,<1>41,1115:12<14,1>>:,45>1>4>>1,1><--=+O.  @ o",
"#    .# +  @O #3<:<2>>4:<4441,<,4>,<1::2><<<4>4,,1,>>21&.+ @X@@ ",
" X. OX.X.X    @;<,2:>4,,4<:4121<<112>>25<,<51>2<41><1,1=## . X  ",
" o X@.   X @ # =1::2,11>:155:1>2,41,1><>5>24>::&3$3$&;3;+. Xo .o",
" o@    +@@..X..;<1:>,1154>:4>1>4:>12:4,14<:4>44$&3-%$=.X X X +@X",
"..  @  O +o. + *:>1421:<<5221,::42:1<:11,><151,,::>1:&&-o@   .. ",
"  #@  @#oO.  X=$,444:51451:>4>,242114,<455>51<4<<544555= . #  #o",
"o #X.o X X   X*25121:11:<,455::,<4:11241221,<,:44,:512;; ..X o  ",
". X..#@@ #X X %5<1:22<>4<,,,1-----1<,55<,,>2,<>,2>53-*3@+ o#X+ +",
"XO X  @o@@ .@ $1><::22><5,2<&aiuaf;,252::*$*=-$3%;;-:.#  . .    ",
".+. X..  . .  &,<21:>2<45123iggigdd*,,111>>5-.##+.X@X@. X  X@ X ",
"@@@  .X+.X. Xo;,,1>4,4<51><-iiduaigg;14,1>,4%#X@#X   .oX.XO ++XX",
" @  @ .@ . #X 3512<542<:5<-fggigpipas*1,>544;  O+X X.     @ oX. ",
" X .X@@+     X&22<>:52411<-uipfsfddgg&155,4,-+ o##o.X   o  . @  ",
" X.X  o @.+@@@$4:>>45,11:-dssuasipapag=<>2>1; X  oX X#XXo o#X@ X",
"    oX+. @ X#X34,>:>>,11>;uaigiasiupds-4:<4>*    o   O@#XX.@  @ ",
"@+..X X Xo   @&2><<255141=gapuguiipsfii=114<% ..    Xo.o. .oO.. ",
".X X X.o. @@. -1<,1:>:<,5*upidpdsupdufg34,5>1=oXX.Xo. X  @   .  ",
"o @  # #OXo.@+=>:,215,<1,=uiapgfgddsuddf=<><:>*3 @@ .q676@ o.@  ",
"#@#  @.  @.@..-<2>21:25:,&gdiiiidsdidgsg345<><<==. 66e6q6XX X . ",
"XXo@#o@orhryt@-:4,>><,4,5&iugsiifdgafgsu34>:22<>>-q699996@ o  O.",
" @ @O  rtjtrrh=4214,4:,2<&dgigpsadiisuuu&11>5>4>2*q6q96q# X@o   ",
" X  @  rtktrtr*>,<:5<2>>4-iaiisduispggig&:,1:,<:<;066q. X  .@  @",
".@  @@   yty==1>4::15>:41%=aufsgussigufa=4>>::>1:&89 .@  ...   X",
"XX.@@oXor-$&%4<>:,,5:1,>>>=usfapgdsdifuf*4::545:2- . ##  @@O@# .",
"X@ O.@&;$%,>521511:1,11221$diusgiufsusdf-55<,<45>3q .X#+ @X  XXX",
"@  #&3$5,245>5:21<111<4>1,=duuuddsaguufua-,:45:1,&$ #@  X   XX. ",
"o@ X-1:::2111,1<>,2><>,,11&iigidgiiiiguif$4<<1,1<:;3-;- +@@  @. ",
"+#.#*1:112:1,<>,::1<<:>51:*iiaasaffifdgas&<<,5,>1,,><:&**3 # .Xo",
"o.o 3,5,:1,2:<5441<,,52,<:;pddfffpigiuaig-,:15,4,1<1155<<.-3#@ X",
"+.  ;,>2>,14,2,5,>14:5,4>2-uguggfaugsiisu&4,>1:1>,5<<1:444 %.X# ",
"@X o-4,4><:4:5>:><5:54:5%,;upfidsagisiiid3,5454>,411>11,214;.#  ",
"   o*4<,44,4>,<:<,,>15>%-**3=33*-;3;=*&$&-;&=*42,<<:524,45<;=X .",
"XX  *12:21<1>12<514,,4-4<5<++. @+X o##.@    +-,4:1<<52>1<<21= #X",
" @XO&;>551:25,1,>><14<*2@.o@##  o. XOX@.oX@. -1,,,141525<:,1;.X ",
". o@.;5<<1,5,141>,><-&3   @ O. . ooO + @..X @;%5>,,><12<4:143@+.",
". @. 33;%$%;=%&&-%&3; .X.@@Xo X .X .X. +.X X o-$;=,1454=$-3=  @@",
"  X@+.o.    +X#+.@X.. X#   .    @@@@  + @  X.@@  &-&3--%>2,   .@"
};
